<svg xmlns="http://www.w3.org/2000/svg" width="512" height="512" viewBox="0 0 512 512" role="img" aria-label="Factory app icon">
  <defs>
    <linearGradient id="bg" x1="0" y1="0" x2="1" y2="1">
      <stop offset="0%" stop-color="#8f2424" />
      <stop offset="100%" stop-color="#6d1b1b" />
    </linearGradient>
  </defs>
  <rect width="512" height="512" rx="120" fill="url(#bg)" />
  <rect x="108" y="262" width="296" height="146" rx="20" fill="#fff" />
  <rect x="132" y="164" width="60" height="98" rx="12" fill="#fff" />
  <rect x="206" y="130" width="52" height="132" rx="12" fill="#fff" />
  <polygon points="222,262 272,222 272,262" fill="#fff" />
  <polygon points="270,262 320,222 320,262" fill="#fff" />
  <polygon points="318,262 368,222 368,262" fill="#fff" />
  <rect x="146" y="300" width="40" height="38" rx="6" fill="#8f2424" />
  <rect x="198" y="300" width="40" height="38" rx="6" fill="#8f2424" />
  <rect x="250" y="300" width="40" height="38" rx="6" fill="#8f2424" />
  <rect x="302" y="300" width="40" height="38" rx="6" fill="#8f2424" />
  <rect x="146" y="348" width="196" height="42" rx="8" fill="#8f2424" />
</svg>
